<?xml version="1.0" standalone="no"?>
<!DOCTYPE svg PUBLIC "-//W3C//DTD SVG 20010904//EN"
 "http://www.w3.org/TR/2001/REC-SVG-20010904/DTD/svg10.dtd">
<svg version="1.0" xmlns="http://www.w3.org/2000/svg"
 width="70.000000pt" height="70.000000pt" viewBox="0 0 70.000000 70.000000"
 preserveAspectRatio="xMidYMid meet">
<metadata>
Created by potrace 1.11, written by Peter Selinger 2001-2013
</metadata>
<g transform="translate(0.000000,70.000000) scale(0.100000,-0.100000)"
fill="#000000" stroke="none">
<path d="M0 620 c0 -5 4 -10 9 -10 5 0 14 -13 21 -30 7 -16 15 -30 19 -30 3 0
12 -14 19 -30 8 -17 19 -36 26 -43 6 -6 22 -33 36 -59 14 -27 28 -48 32 -48
18 0 6 -50 -22 -86 -16 -21 -30 -42 -30 -46 0 -3 -20 -37 -45 -74 -35 -53 -41
-70 -30 -74 8 -3 76 -5 152 -4 87 1 140 -3 145 -9 4 -7 11 -8 20 0 8 6 71 10
156 9 78 -1 149 1 157 4 11 4 6 19 -25 65 -21 33 -43 65 -49 71 -5 7 -7 15 -4
18 4 3 1 6 -5 6 -6 0 -14 9 -17 20 -3 11 -13 27 -22 35 -21 22 -20 65 3 82 10
7 14 13 10 13 -4 0 4 15 18 33 14 19 23 36 20 40 -3 3 4 11 16 17 12 6 19 14
16 17 -3 3 4 17 14 31 11 13 20 31 20 39 0 8 4 12 9 9 4 -3 13 6 19 19 l12 25
-350 0 c-227 0 -350 -4 -350 -10z m337 -13 c2 -3 -5 -15 -16 -26 -12 -12 -21
-24 -21 -28 0 -5 -7 -16 -15 -25 -8 -10 -12 -18 -9 -18 3 0 -4 -12 -15 -26
-12 -15 -21 -33 -21 -40 0 -8 -3 -14 -7 -14 -5 0 -17 -14 -28 -30 l-20 -30
-17 23 c-10 12 -18 28 -18 35 0 6 -4 12 -10 12 -5 0 -10 6 -10 14 0 7 -7 19
-15 26 -8 7 -12 16 -9 21 3 5 1 9 -5 9 -5 0 -12 8 -16 19 -3 10 -14 29 -25 41
-27 31 -25 38 8 42 41 5 263 0 269 -5z m310 4 c13 -1 5 -41 -8 -41 -5 0 -9 -7
-9 -15 0 -8 -4 -15 -10 -15 -5 0 -10 -6 -10 -13 0 -7 -9 -23 -19 -34 -11 -12
-17 -24 -14 -27 4 -3 1 -6 -6 -6 -8 0 -11 -6 -7 -16 3 -8 2 -12 -3 -9 -5 3
-12 -4 -16 -15 -3 -11 -11 -20 -16 -20 -6 0 -8 -4 -5 -9 3 -5 -1 -11 -9 -14
-8 -4 -16 2 -20 13 -4 11 -12 26 -18 32 -20 21 -67 97 -67 108 0 5 -4 10 -9
10 -5 0 -12 11 -15 25 -4 14 -11 25 -16 25 -20 0 -9 19 13 22 18 2 220 2 264
-1z"/>
</g>
</svg>
